<?xml version="1.0" encoding="UTF-8"?>
<svg width="26px" height="26px" viewBox="0 0 26 26" version="1.1" xmlns="http://www.w3.org/2000/svg" xmlns:xlink="http://www.w3.org/1999/xlink">
    <title>D373C86B-7338-49FB-87A2-DE1DD75DD2CF</title>
    <g id="Navigation" stroke="none" stroke-width="1" fill="none" fill-rule="evenodd">
        <g id="D_Navigation_1.1-/-Default-" transform="translate(-1336.000000, -75.000000)">
            <g id="Main-Bar" transform="translate(0.000000, 48.000000)">
                <g id="Right-Copy-6" transform="translate(1045.000000, 27.000000)">
                    <g id="Right-Side" transform="translate(221.113810, 0.000000)">
                        <g id="noun_profile_3167555-copy-3" transform="translate(69.886190, 0.000000)">
                            <rect id="Rectangle" fill="#FFFFFF" x="0" y="0" width="26" height="26"></rect>
                            <g id="noun_profile_1766704" transform="translate(2.000000, 2.000000)" fill="#000000" fill-rule="nonzero">
                                <path d="M11,0 C7.68085106,0 5,2.625 5,6 C5,9.25 7.68085106,12 11,12 C14.3191489,12 17,9.25 17,6 C17,2.625 14.3191489,0 11,0 Z" id="Path"></path>
                                <path d="M22,18.2370649 C21.0994152,15.5465663 19.1695906,13.5898401 16.2105263,12 C13.380117,14.5682032 8.87719298,14.5682032 6.04678363,12 C2.83040936,13.5898401 0.771929825,15.6688617 0,18.6039511 C6.56140351,23.2511759 15.5672515,23.1288805 22,18.2370649 Z" id="Path"></path>
                            </g>
                        </g>
                    </g>
                </g>
            </g>
        </g>
    </g>
</svg>