<?xml version="1.0" encoding="UTF-8"?>
<svg width="27px" height="27px" viewBox="0 0 27 27" version="1.1" xmlns="http://www.w3.org/2000/svg" xmlns:xlink="http://www.w3.org/1999/xlink">
    <title>Icon / Basket</title>
    <g id="Symbols" stroke="none" stroke-width="1" fill="none" fill-rule="evenodd">
        <g id="Organisms/Navigation/Mobile" transform="translate(-284.000000, -59.000000)">
            <g id="Icon-/-Basket" transform="translate(284.000000, 59.000000)">
                <g id="noun_shopping-basket_1203505" fill="currentColor">
                    <path d="M8.92307692,9.27179487 C9.28205128,9.78461538 9.94871795,9.88717949 10.4615385,9.52820513 C10.974359,9.16923077 11.0769231,8.5025641 10.7179487,7.98974359 L5.43589744,0.707692308 C5.07692308,0.194871795 4.41025641,0.0923076923 3.8974359,0.451282051 C3.38461538,0.81025641 3.28205128,1.47692308 3.64102564,1.98974359 L8.92307692,9.27179487 Z" id="Path"></path>
                    <path d="M25.3903846,8 L20.0423077,8 L11.5,8 C11.8333333,9 11.8333333,9.66666667 11.5,10 C10.7777037,10.7222963 8.82692308,10.5641026 8.1,9.58974359 L6.90576923,8 L1.60961538,8 C0.726923077,8 -5.32907052e-15,8.71794872 -5.32907052e-15,9.58974359 C-5.32907052e-15,10.4615385 0.726923077,11.1794872 1.60961538,11.1794872 L25.3903846,11.1794872 C26.2730769,11.1794872 27,10.4615385 27,9.58974359 C27,8.71794872 26.2730769,8 25.3903846,8 Z" id="Path"></path>
                </g>
                <path d="M2.22431889,12.1794872 L24.9423478,12.1794872 C25.4946325,12.1794872 25.9423478,12.6272024 25.9423478,13.1794872 C25.9423478,13.2233402 25.9394632,13.2671457 25.9337126,13.3106201 L24.346411,25.3106201 C24.280635,25.8078869 23.8566445,26.1794872 23.3550462,26.1794872 L3.81162047,26.1794872 C3.31002222,26.1794872 2.88603171,25.8078869 2.82025568,25.3106201 L1.23295409,13.3106201 C1.16053138,12.7631044 1.54567032,12.2605451 2.09318598,12.1881224 C2.13666032,12.1823718 2.18046586,12.1794872 2.22431889,12.1794872 Z" id="Rectangle" fill="currentColor"></path>
                <g id="Group-10" transform="translate(6.500000, 14.000000)" fill="#000000">
                    <path d="M13.0416667,0.5 C13.3408209,0.5 13.5833333,0.742512427 13.5833333,1.04166667 C13.5833333,1.30758155 13.3917186,1.5287424 13.1390319,1.57460636 L13.0416667,1.58333333 L1.04166667,1.58333333 C0.742512427,1.58333333 0.5,1.34082091 0.5,1.04166667 C0.5,0.775751787 0.691614757,0.554590932 0.944301398,0.508726975 L1.04166667,0.5 L13.0416667,0.5 Z" id="Line-14"></path>
                    <path d="M13.0416667,4.58333333 C13.3408209,4.58333333 13.5833333,4.82584576 13.5833333,5.125 C13.5833333,5.39091488 13.3917186,5.61207573 13.1390319,5.65793969 L13.0416667,5.66666667 L1.04166667,5.66666667 C0.742512427,5.66666667 0.5,5.42415424 0.5,5.125 C0.5,4.85908512 0.691614757,4.63792427 0.944301398,4.59206031 L1.04166667,4.58333333 L13.0416667,4.58333333 Z" id="Line-14-Copy"></path>
                    <path d="M13.0416667,8.66666667 C13.3408209,8.66666667 13.5833333,8.90917909 13.5833333,9.20833333 C13.5833333,9.47424821 13.3917186,9.69540907 13.1390319,9.74127302 L13.0416667,9.75 L1.04166667,9.75 C0.742512427,9.75 0.5,9.50748757 0.5,9.20833333 C0.5,8.94241845 0.691614757,8.7212576 0.944301398,8.67539364 L1.04166667,8.66666667 L13.0416667,8.66666667 Z" id="Line-14-Copy-2"></path>
                </g>
            </g>
        </g>
    </g>
</svg>