<?xml version="1.0" encoding="UTF-8"?>
<svg width="29px" height="24px" viewBox="0 0 29 24" version="1.1" xmlns="http://www.w3.org/2000/svg" xmlns:xlink="http://www.w3.org/1999/xlink">
    <title>C3FF68CB-1C7F-4B74-85FB-7E3298F2BD56</title>
    <g id="Navigation" stroke="none" stroke-width="1" fill="none" fill-rule="evenodd">
        <g id="D_Navigation_1.1-/-Default-" transform="translate(-1391.000000, -75.000000)" fill="currentColor" fill-rule="nonzero">
            <g id="Main-Bar" transform="translate(0.000000, 48.000000)">
                <g id="Right-Copy-6" transform="translate(1045.000000, 27.000000)">
                    <g id="Right-Side" transform="translate(221.113810, 0.000000)">
                        <g id="shopping-cart-(1)" transform="translate(124.918112, 0.000000)">
                            <path d="M22.3827098,17.819508 C21.9846589,17.6354855 21.5253693,17.5434743 21.0966991,17.5434743 L8.60402387,17.5434743 L8.14473434,14.8444783 L23.8830556,14.8444783 L27.1287016,4.01782366 L6.30757622,4.01782366 L5.60333227,0 L0,0 L0,1.93223581 L3.94988996,1.93223581 L6.67500784,17.8808488 C5.08280414,18.6782795 4.4397988,20.6105153 5.20528135,22.2053766 C5.9707639,23.8002379 7.93039923,24.4443165 9.52260293,23.6775563 C11.053568,22.910796 11.7271927,21.0705714 11.053568,19.4757101 L18.1572461,19.4757101 C17.4530022,21.1012418 18.1878654,23.0028072 19.8106884,23.7082267 C21.4335114,24.4136461 23.3319082,23.6775563 24.0361521,22.0520245 C24.7710154,20.4264928 24.0055328,18.5249274 22.3827098,17.819508 Z" id="Path"></path>
                        </g>
                    </g>
                </g>
            </g>
        </g>
    </g>
</svg>