<?xml version="1.0" encoding="UTF-8"?>
<svg width="32px" height="32px" viewBox="0 0 32 32" version="1.1" xmlns="http://www.w3.org/2000/svg" xmlns:xlink="http://www.w3.org/1999/xlink">
    <title>compare_arrows-24px@1x</title>
    <g id="PDP" stroke="none" stroke-width="1" fill="none" fill-rule="evenodd">
        <g id="D_PDP_1.3-/-Battery" transform="translate(-964.000000, -652.000000)">
            <g id="Tooltip-Box" transform="translate(950.000000, 638.000000)">
                <g id="compare_arrows-24px" transform="translate(14.000000, 14.000000)">
                    <polygon id="Path" points="0 0 32 0 32 32 0 32"></polygon>
                    <path d="M12.0133333,18.6666667 L4,18.6666667 C3.26666667,18.6666667 2.66666667,19.2666667 2.66666667,20 C2.66666667,20.7333333 3.26666667,21.3333333 4,21.3333333 L12.0133333,21.3333333 L12.0133333,23.72 C12.0133333,24.32 12.7333333,24.6133333 13.1466667,24.1866667 L16.8533333,20.4666667 C17.1066667,20.2 17.1066667,19.7866667 16.8533333,19.52 L13.1466667,15.8 C12.7333333,15.3733333 12.0133333,15.68 12.0133333,16.2666667 L12.0133333,18.6666667 Z M19.9866667,15.72 L19.9866667,13.3333333 L28,13.3333333 C28.7333333,13.3333333 29.3333333,12.7333333 29.3333333,12 C29.3333333,11.2666667 28.7333333,10.6666667 28,10.6666667 L19.9866667,10.6666667 L19.9866667,8.28 C19.9866667,7.68 19.2666667,7.38666667 18.8533333,7.81333333 L15.1466667,11.5333333 C14.8933333,11.8 14.8933333,12.2133333 15.1466667,12.48 L18.8533333,16.2 C19.2666667,16.6133333 19.9866667,16.32 19.9866667,15.72 Z" id="Shape" fill="#000000" fill-rule="nonzero"></path>
                </g>
            </g>
        </g>
    </g>
</svg>