<?xml version="1.0" encoding="UTF-8"?>
<svg width="24px" height="24px" viewBox="0 0 24 24" version="1.1" xmlns="http://www.w3.org/2000/svg" xmlns:xlink="http://www.w3.org/1999/xlink">
    <title>noun_expand_1440768</title>
    <g id="Main-User-Flow-Desktop" stroke="none" stroke-width="1" fill="none" fill-rule="evenodd">
        <g id="Flow3_8-/-Accord-1" transform="translate(-786.000000, -833.000000)" fill="#FFFFFF" fill-rule="nonzero">
            <g id="Gallery" transform="translate(68.000000, 796.000000)">
                <g id="Group-3" transform="translate(710.000000, 29.000000)">
                    <g id="noun_expand_1440768" transform="translate(8.000000, 8.000000)">
                        <path d="M7.23076923,0 L0.923076923,0 C0.413275616,0 -1.09314267e-15,0.413275616 -1.09314267e-15,0.923076923 L-1.09314267e-15,7.23076923 L1.84615385,7.23076923 L1.84615385,3.13846154 L9.2,10.4923077 L10.4923077,9.2 L3.13846154,1.84615385 L7.23076923,1.84615385 L7.23076923,0 Z" id="Path"></path>
                        <path d="M23.0769231,-1.09314267e-15 L16.7692308,-1.09314267e-15 L16.7692308,1.84615385 L20.8615385,1.84615385 L13.5076923,9.2 L14.8,10.4923077 L22.1538462,3.13846154 L22.1538462,7.23076923 L24,7.23076923 L24,0.923076923 C24,0.413275616 23.5867244,-1.09314267e-15 23.0769231,-1.09314267e-15 Z" id="Path"></path>
                        <path d="M22.1538462,20.8615385 L14.8,13.5076923 L13.5076923,14.8 L20.8615385,22.1538462 L16.7692308,22.1538462 L16.7692308,24 L23.0769231,24 C23.5867244,24 24,23.5867244 24,23.0769231 L24,16.7692308 L22.1538462,16.7692308 L22.1538462,20.8615385 Z" id="Path"></path>
                        <path d="M7.23076923,24 L7.23076923,22.1538462 L3.13846154,22.1538462 L10.4923077,14.8 L9.2,13.5076923 L1.84615385,20.8615385 L1.84615385,16.7692308 L0,16.7692308 L0,23.0769231 C0,23.5867244 0.413275616,24 0.923076923,24 L7.23076923,24 Z" id="Path"></path>
                    </g>
                </g>
            </g>
        </g>
    </g>
</svg>