<?xml version="1.0" encoding="UTF-8"?>
<svg width="29px" height="29px" viewBox="0 0 29 29" version="1.1" xmlns="http://www.w3.org/2000/svg" xmlns:xlink="http://www.w3.org/1999/xlink">
    <title>instagram (6)</title>
    <g id="Navigation" stroke="none" stroke-width="1" fill="none" fill-rule="evenodd">
        <g id="Organisms/Footer/Mobile" transform="translate(-85.000000, -605.000000)" fill="currentColor">
            <g id="Social-Placeholder" transform="translate(32.000000, 605.000000)">
                <g id="instagram-(6)" transform="translate(53.000000, 0.000000)">
                    <path d="M14.5,0 C10.5608333,0 10.0690417,0.018125 8.522375,0.087 C6.978125,0.1595 5.926875,0.402375 5.0025,0.76125 C4.049125,1.131 3.23954167,1.627625 2.43358333,2.43358333 C1.627625,3.23954167 1.12979167,4.04791667 0.76125,5.0025 C0.402375,5.926875 0.158291667,6.978125 0.087,8.522375 C0.0145,10.0690417 0,10.5608333 0,14.5 C0,18.4391667 0.018125,18.9309583 0.087,20.477625 C0.1595,22.0206667 0.402375,23.073125 0.76125,23.9975 C1.131,24.9496667 1.627625,25.7604583 2.43358333,26.5664167 C3.23954167,27.3711667 4.04791667,27.8702083 5.0025,28.23875 C5.92808333,28.5964167 6.97933333,28.8417083 8.522375,28.913 C10.0690417,28.9855 10.5608333,29 14.5,29 C18.4391667,29 18.9309583,28.981875 20.477625,28.913 C22.0206667,28.8405 23.073125,28.5964167 23.9975,28.23875 C24.9496667,27.869 25.7604583,27.3711667 26.5664167,26.5664167 C27.3711667,25.7604583 27.8702083,24.9532917 28.23875,23.9975 C28.5964167,23.073125 28.8417083,22.0206667 28.913,20.477625 C28.9855,18.9309583 29,18.4391667 29,14.5 C29,10.5608333 28.981875,10.0690417 28.913,8.522375 C28.8405,6.97933333 28.5964167,5.92566667 28.23875,5.0025 C27.869,4.049125 27.3711667,3.23954167 26.5664167,2.43358333 C25.7604583,1.627625 24.9532917,1.12979167 23.9975,0.76125 C23.073125,0.402375 22.0206667,0.158291667 20.477625,0.087 C18.9309583,0.0145 18.4391667,0 14.5,0 Z M14.5,2.61 C18.3702917,2.61 18.831875,2.62933333 20.3604167,2.69579167 C21.7741667,2.76225 22.5414583,2.99666667 23.051375,3.19725 C23.7304583,3.45945833 24.211375,3.773625 24.7212917,4.27991667 C25.2275833,4.78741667 25.54175,5.26954167 25.8039583,5.948625 C26.002125,6.45854167 26.2389583,7.22583333 26.303,8.63958333 C26.371875,10.1693333 26.3875833,10.6285 26.3875833,14.5 C26.3875833,18.3715 26.3694583,18.831875 26.2981667,20.3604167 C26.2244583,21.7741667 25.9888333,22.5414583 25.7894583,23.051375 C25.5187917,23.7304583 25.2106667,24.211375 24.7031667,24.7212917 C24.196875,25.2275833 23.7075,25.54175 23.0356667,25.8039583 C22.5281667,26.002125 21.7487917,26.2389583 20.3350417,26.303 C18.795625,26.371875 18.3425,26.3875833 14.46375,26.3875833 C10.5837917,26.3875833 10.1306667,26.3694583 8.59245833,26.2981667 C7.1775,26.2244583 6.398125,25.9888333 5.890625,25.7894583 C5.20308333,25.5187917 4.730625,25.2106667 4.22433333,24.7031667 C3.715625,24.196875 3.39058333,23.7075 3.13683333,23.0356667 C2.93745833,22.5281667 2.70304167,21.7487917 2.62933333,20.3350417 C2.57495833,18.8125417 2.555625,18.3425 2.555625,14.481875 C2.555625,10.6200417 2.57495833,10.1487917 2.62933333,8.60816667 C2.70304167,7.19441667 2.93745833,6.41625 3.13683333,5.90875 C3.39058333,5.22 3.715625,4.74875 4.22433333,4.24004167 C4.730625,3.73375 5.20308333,3.4075 5.890625,3.15495833 C6.398125,2.954375 7.16058333,2.71875 8.57433333,2.64625 C10.1149583,2.591875 10.5680833,2.57375 14.445625,2.57375 L14.5,2.61 L14.5,2.61 Z M14.5,7.05425 C10.385625,7.05425 7.05425,10.38925 7.05425,14.5 C7.05425,18.614375 10.38925,21.94575 14.5,21.94575 C18.614375,21.94575 21.94575,18.61075 21.94575,14.5 C21.94575,10.385625 18.61075,7.05425 14.5,7.05425 Z M14.5,19.3333333 C11.8295833,19.3333333 9.66666667,17.1704167 9.66666667,14.5 C9.66666667,11.8295833 11.8295833,9.66666667 14.5,9.66666667 C17.1704167,9.66666667 19.3333333,11.8295833 19.3333333,14.5 C19.3333333,17.1704167 17.1704167,19.3333333 14.5,19.3333333 Z M23.9805833,6.760625 C23.9805833,7.72125 23.2,8.500625 22.2405833,8.500625 C21.2799583,8.500625 20.5005833,7.72004167 20.5005833,6.760625 C20.5005833,5.80120833 21.2811667,5.02183193 22.2405833,5.02183193 C23.1987917,5.020625 23.9805833,5.80120833 23.9805833,6.760625 Z" id="Shape"></path>
                </g>
            </g>
        </g>
    </g>
</svg>