<?xml version="1.0" encoding="UTF-8"?>
<svg width="21px" height="21px" viewBox="0 0 21 21" version="1.1" xmlns="http://www.w3.org/2000/svg" xmlns:xlink="http://www.w3.org/1999/xlink">
    <title>Group</title>
    <g id="Symbols" stroke="none" stroke-width="1" fill="none" fill-rule="evenodd">
        <g id="Organisms/Navigation/Mobile" transform="translate(-242.000000, -62.000000)" fill="currentColor">
            <g id="Search-Icon" transform="translate(242.000000, 62.000000)">
                <path d="M20.3876701,20.3876701 C19.5712302,21.20411 18.2415996,21.20411 17.4251597,20.3876701 L13.5762288,16.5387392 C12.2232713,17.378506 10.6370453,17.845043 8.91085809,17.845043 C3.98889197,17.845043 0,13.8561511 0,8.91085809 C0,3.96556512 3.98889197,0 8.91085809,0 C13.8328242,0 17.845043,3.98889197 17.845043,8.91085809 C17.845043,10.6137184 17.3551791,12.1999445 16.5387392,13.5762288 L20.3876701,17.4251597 C21.20411,18.2415996 21.20411,19.5712302 20.3876701,20.3876701 Z M8.91085809,3.14912524 C5.738406,3.14912524 3.14912524,5.738406 3.14912524,8.91085809 C3.14912524,12.0833102 5.738406,14.6959178 8.93418495,14.6959178 C12.1299639,14.6959178 14.7192447,12.106637 14.7192447,8.91085809 C14.7192447,5.71507914 12.106637,3.14912524 8.91085809,3.14912524 Z" id="Shape"></path>
            </g>
        </g>
    </g>
</svg>