<?xml version="1.0" encoding="UTF-8"?>
<svg viewBox="0 0 17 17" version="1.1" xmlns="http://www.w3.org/2000/svg" xmlns:xlink="http://www.w3.org/1999/xlink">
    <g id="Navigation" stroke="none" stroke-width="1" fill="none" fill-rule="evenodd">
        <g id="M_Navigation_1.2" transform="translate(-338.000000, -65.000000)" fill="#FF0000" fill-rule="nonzero">
            <g id="Nav-Bar" transform="translate(0.000000, 1.000000)">
                <g id="Group" transform="translate(242.000000, 56.000000)">
                    <g id="Group-3" transform="translate(96.000000, 8.000000)">
                        <path d="M5.54920879,15.1981485 L15.1826061,5.56469076 C16.6406904,4.10659738 17.0373498,2.11842941 16.0647942,1.14586768 C15.0926937,0.173761057 13.1043106,0.570195453 11.6462264,2.02828883 L2.01282902,11.6617465 C0.554744772,13.1198399 0.157786459,15.1083067 1.13011454,16.0806409 C2.10267018,17.0532026 4.09112454,16.6562418 5.54920879,15.1981485 Z" id="Path"></path>
                        <path d="M15.1825973,11.661927 L5.54913958,2.0285296 C4.0910462,0.570445355 2.10257938,0.173487042 1.13001765,1.14604268 C0.15791103,2.11814321 0.554644276,4.10682513 2.01273766,5.56490938 L11.6461953,15.1983067 C13.1042887,16.656391 15.0924567,17.0530504 16.0647909,16.0807224 C17.0373526,15.1081667 16.6406906,13.1200112 15.1825973,11.661927 Z" id="Path"></path>
                    </g>
                </g>
            </g>
        </g>
    </g>
</svg> 
