<?xml version="1.0" encoding="UTF-8"?>
<svg width="10px" height="12px" viewBox="0 0 10 12" version="1.1" xmlns="http://www.w3.org/2000/svg" xmlns:xlink="http://www.w3.org/1999/xlink">
    <title>WWE Network - Clash of Champions 2020-4</title>
    <g id="Main-User-Flow-Desktop" stroke="none" stroke-width="1" fill="none" fill-rule="evenodd">
        <g id="Flow3_8-/-Accord-1" transform="translate(-697.000000, -839.000000)" fill="#000000" fill-rule="nonzero">
            <g id="Gallery" transform="translate(68.000000, 796.000000)">
                <g id="Play-Button-Copy" transform="translate(614.000000, 29.000000)">
                    <g id="WWE-Network---Clash-of-Champions-2020-4" transform="translate(15.500000, 14.000000)">
                        <path d="M0.298359432,5.42709967 L7.87067277,0.12648032 C8.18709348,-0.0950141742 8.62315993,-0.0180612738 8.84465442,0.298359432 C8.92693896,0.415908755 8.9710747,0.555923445 8.9710747,0.699410684 L8.9710747,11.3006494 C8.9710747,11.6868901 8.65796472,12 8.27172406,12 C8.12823683,12 7.98822214,11.9558643 7.87067277,11.8735798 L0.298359432,6.57296039 C-0.0180612738,6.3514659 -0.0950141742,5.91539948 0.12648032,5.59897879 C0.17330109,5.53209196 0.231472607,5.47392045 0.298359432,5.42709967 Z" id="Path" transform="translate(4.485537, 6.000000) scale(-1, 1) translate(-4.485537, -6.000000) "></path>
                    </g>
                </g>
            </g>
        </g>
    </g>
</svg>