<?xml version="1.0" encoding="UTF-8"?>
<svg width="15px" height="19px" viewBox="0 0 15 19" version="1.1" xmlns="http://www.w3.org/2000/svg" xmlns:xlink="http://www.w3.org/1999/xlink">
    <title>A246B831-CCB2-40FC-A841-24E19F2ACF73</title>
    <g id="Navigation" stroke="none" stroke-width="1" fill="none" fill-rule="evenodd">
        <g id="M_Navigations_1.2-/-Open-" transform="translate(-116.000000, -579.000000)" fill="#000000" fill-rule="nonzero">
            <g id="Bottom-Part" transform="translate(0.000000, 406.000000)">
                <g id="Group-5" transform="translate(0.000000, 156.000000)">
                    <g id="noun_notification_822218" transform="translate(116.000000, 17.000000)">
                        <path d="M5.57258065,17 C5.52419355,17.1367521 5.5,17.2564103 5.5,17.4102564 C5.5,18.2820513 6.51612903,19 7.75,19 C8.98387097,19 10,18.2820513 10,17.4102564 C10,17.2735043 9.97580645,17.1367521 9.92741935,17 L5.57258065,17 Z" id="Path"></path>
                        <path d="M15,14.738423 C14.9801587,14.5782228 14.9206349,14.4380476 14.8214286,14.3178974 C14.8015873,14.2978723 13.2142857,12.5556946 13.2142857,7.94993742 C13.2142857,4.36545682 10.8333333,2.86357947 8.86904762,2.40300375 L8.86904762,1.36170213 C8.86904762,0.62077597 8.25396825,0 7.51984127,0 C6.78571429,0 6.15079365,0.62077597 6.15079365,1.36170213 L6.15079365,2.42302879 C4.18650794,2.88360451 1.80555556,4.36545682 1.80555556,7.96996245 C1.80555556,12.5757196 0.218253968,14.3178974 0.198412698,14.3178974 C0.0793650794,14.4380476 0.0198412698,14.5782228 0,14.738423 L0,14.738423 L0,16 L15,16 L15,14.738423 L15,14.738423 Z" id="Path"></path>
                    </g>
                </g>
            </g>
        </g>
    </g>
</svg>