<?xml version="1.0" encoding="UTF-8"?>
<svg width="34px" height="27px" viewBox="0 0 34 27" version="1.1" xmlns="http://www.w3.org/2000/svg" xmlns:xlink="http://www.w3.org/1999/xlink">
    <title>noun_360 vr_2320703</title>
    <g id="Main-User-Flow-Desktop" stroke="none" stroke-width="1" fill="none" fill-rule="evenodd">
        <g id="Flow3_8-/-Accord-1" transform="translate(-733.000000, -832.000000)" fill-rule="nonzero">
            <g id="Gallery" transform="translate(68.000000, 796.000000)">
                <g id="Group-2" transform="translate(662.000000, 29.000000)">
                    <g id="noun_360-vr_2320703" transform="translate(3.000000, 8.000000)">
                        <path d="M16.6842581,13.7242581 C16.016129,13.7242581 0.323225806,13.771871 0.323225806,17.9014194 C0.323225806,21.1433548 9.89303226,21.8652903 13.9741935,22.0255484 L11.6325161,24.359871 L12.9052903,25.6407742 L16.4763871,22.0851613 C16.8298065,21.7336774 16.8611613,21.1356129 16.5402581,20.7539355 C16.1072258,20.2393548 14.9896344,18.9785376 13.1874839,16.9714839 L11.8113548,18.140129 L13.7190968,20.2100645 C7.96296774,19.975871 4.37148387,19.1107097 2.88812903,18.4077419 C2.43754839,18.1944516 2.43290323,17.6025806 2.88348387,17.3877419 C4.67109677,16.5396129 9.45174194,15.5292903 16.6846452,15.5292903 C23.9179355,15.5292903 28.6981935,16.54 30.4854194,17.3877419 C30.936,17.6018065 30.9313548,18.1944516 30.48,18.4077419 C29.4477419,18.8962581 25.584129,19.5065806 18.8891613,20.2387097 L18.9216774,22.0425806 C28.3374194,21.5310968 33.0452903,20.1505806 33.0452903,17.9010323 C33.0449032,13.771871 17.3523871,13.7242581 16.6842581,13.7242581 Z" id="Path" fill="#FFFFFF"></path>
                        <g id="Group" transform="translate(2.709677, 0.935484)" fill="#FFFFFF">
                            <path d="M0.0886451613,9.29729032 L0.0886451613,7.51587097 L0.289548387,7.51587097 C1.24722581,8.064 2.14412903,8.33729032 2.98025806,8.33729032 C3.64103226,8.33729032 4.15741935,8.20064516 4.52941935,7.92658065 C4.90141935,7.65290323 5.0876129,7.25225806 5.0876129,6.72541935 C5.0876129,6.30735484 4.94245161,5.98412903 4.65174194,5.75651613 C4.36103226,5.52890323 3.76025806,5.41470968 2.84864516,5.41470968 L2.29664516,5.41470968 L2.29664516,3.99096774 L2.81729032,3.99096774 C4.22206452,3.99096774 4.92464516,3.56245161 4.92464516,2.70503226 C4.92464516,2.34541935 4.77406452,2.07251613 4.47290323,1.88670968 C4.17174194,1.70051613 3.74322581,1.6076129 3.18696774,1.6076129 C2.43832258,1.6076129 1.5603871,1.87509677 0.552774194,2.41045161 L0.364645161,2.41045161 L0.364645161,0.648 C1.42683871,0.25083871 2.44916129,0.0518709677 3.4316129,0.0518709677 C4.59406452,0.0518709677 5.47316129,0.26516129 6.06890323,0.691741935 C6.66464516,1.11832258 6.96270968,1.68464516 6.96270968,2.39148387 C6.96270968,2.91832258 6.79741935,3.37935484 6.46722581,3.77458065 C6.13664516,4.16980645 5.69574194,4.43419355 5.14374194,4.56812903 L5.14374194,4.656 C5.77509677,4.76903226 6.27483871,5.01445161 6.64296774,5.39303226 C7.01109677,5.7716129 7.19496774,6.25974194 7.19496774,6.85780645 C7.19496774,7.77754839 6.84387097,8.51380645 6.14129032,9.06580645 C5.43870968,9.61780645 4.4876129,9.89380645 3.28722581,9.89380645 C2.12477419,9.89303226 1.05832258,9.69406452 0.0886451613,9.29729032 Z" id="Path"></path>
                            <path d="M15.2984516,0.208645161 L15.2984516,1.82670968 L15.116129,1.82670968 C14.7193548,1.63432258 14.2397419,1.53832258 13.6796129,1.53832258 C11.9698065,1.53832258 11.0163871,2.43329032 10.8197419,4.22283871 C11.6477419,3.72929032 12.396,3.48270968 13.0649032,3.48270968 C13.9896774,3.48270968 14.7344516,3.74825806 15.3011613,4.27935484 C15.8674839,4.81045161 16.1508387,5.55483871 16.1508387,6.51251613 C16.1508387,7.50774194 15.8113548,8.31987097 15.1316129,8.94890323 C14.451871,9.57870968 13.5793548,9.89303226 12.5129032,9.89303226 C11.2877419,9.89303226 10.3501935,9.5156129 9.69987097,8.7603871 C9.04954839,8.00593548 8.7243871,6.91587097 8.7243871,5.48980645 C8.7243871,3.73780645 9.15406452,2.39341935 10.0134194,1.45664516 C10.8727742,0.520258065 12.1196129,0.0518709677 13.7547097,0.0518709677 C14.3322581,0.0518709677 14.8467097,0.104129032 15.2984516,0.208645161 Z M10.8139355,5.24516129 L10.8073548,5.50219355 C10.8030968,5.64 10.8011613,5.75109677 10.8011613,5.83470968 C10.8011613,7.59948387 11.3740645,8.48129032 12.519871,8.48129032 C12.9797419,8.48129032 13.3509677,8.31870968 13.6327742,7.992 C13.9153548,7.66606452 14.0562581,7.20812903 14.0562581,6.61858065 C14.0562581,5.46851613 13.455871,4.89367742 12.2562581,4.89367742 C11.7882581,4.89406452 11.3070968,5.01096774 10.8139355,5.24516129 Z" id="Shape"></path>
                            <path d="M21.0375484,9.89303226 C19.7539355,9.89303226 18.812129,9.50283871 18.212129,8.7236129 C17.6117419,7.94322581 17.312129,6.69212903 17.312129,4.96954839 C17.312129,3.2636129 17.6129032,2.01754839 18.2152258,1.23135484 C18.8175484,0.44516129 19.7578065,0.0522580645 21.0375484,0.0522580645 C22.3172903,0.0522580645 23.2579355,0.444387097 23.8602581,1.22825806 C24.4621935,2.01212903 24.7633548,3.25741935 24.7633548,4.96335484 C24.7633548,6.69870968 24.4645161,7.95406452 23.8664516,8.72980645 C23.2683871,9.50554839 22.3254194,9.89303226 21.0375484,9.89303226 Z M21.0375484,1.51316129 C20.451871,1.51316129 20.0330323,1.788 19.7802581,2.33806452 C19.5270968,2.88774194 19.4009032,3.76722581 19.4009032,4.97535484 C19.4009032,6.1796129 19.5301935,7.05754839 19.7895484,7.60954839 C20.0489032,8.16154839 20.4650323,8.43754839 21.0379355,8.43754839 C21.6108387,8.43754839 22.0269677,8.15767742 22.2863226,7.59754839 C22.5456774,7.03703226 22.6753548,6.15909677 22.6753548,4.96296774 C22.6753548,3.75870968 22.5487742,2.88270968 22.296,2.33496774 C22.0420645,1.78722581 21.6228387,1.51316129 21.0375484,1.51316129 Z" id="Shape"></path>
                        </g>
                        <circle id="Oval" stroke="#FFFFFF" cx="30.5" cy="1.5" r="1.5"></circle>
                    </g>
                </g>
            </g>
        </g>
    </g>
</svg>