<?xml version="1.0" encoding="UTF-8"?>
<svg width="16px" height="16px" viewBox="0 0 16 16" version="1.1" xmlns="http://www.w3.org/2000/svg" xmlns:xlink="http://www.w3.org/1999/xlink">
    <g id="Navigation" stroke="none" stroke-width="1" fill="none" fill-rule="evenodd">
        <g id="D_Navigation_1.1-/-Default-" transform="translate(-1045.000000, -79.000000)" fill="currentColor" fill-rule="nonzero">
            <g id="Main-Bar" transform="translate(0.000000, 48.000000)">
                <g id="Right-Copy-6" transform="translate(1045.000000, 27.000000)">
                    <g id="Search-Copy" transform="translate(0.000000, 4.000000)">
                        <path d="M11.4351058,10.0628931 L10.7124071,10.0628931 L10.4562607,9.8158948 C11.352773,8.77301315 11.89251,7.41909663 11.89251,5.946255 C11.89251,2.66209262 9.23041738,0 5.946255,0 C2.66209262,0 0,2.66209262 0,5.946255 C0,9.23041738 2.66209262,11.89251 5.946255,11.89251 C7.41909663,11.89251 8.77301315,11.352773 9.8158948,10.4562607 L10.0628931,10.7124071 L10.0628931,11.4351058 L14.6369354,16 L16,14.6369354 L11.4351058,10.0628931 Z M5.946255,10.0628931 C3.66838193,10.0628931 1.82961692,8.22412807 1.82961692,5.946255 C1.82961692,3.66838193 3.66838193,1.82961692 5.946255,1.82961692 C8.22412807,1.82961692 10.0628931,3.66838193 10.0628931,5.946255 C10.0628931,8.22412807 8.22412807,10.0628931 5.946255,10.0628931 Z" id="Shape"></path>
                    </g>
                </g>
            </g>
        </g>
    </g>
</svg>