<?xml version="1.0" encoding="UTF-8"?>
<svg width="14px" height="14px" viewBox="0 0 14 14" version="1.1" xmlns="http://www.w3.org/2000/svg" xmlns:xlink="http://www.w3.org/1999/xlink">
    <title>icon-review-half-star</title>
    <g id="Symbols" stroke="none" stroke-width="1" fill="none" fill-rule="evenodd">
        <g id="Icons/review-half-star" transform="translate(-1.000000, -1.000000)" fill="currentColor">
            <path d="M8.33102078,1.23059853 L10.1118038,5.65040366 L14.6708384,6.06111019 C14.9870388,6.08974661 15.1156748,6.5034675 14.87565,6.721255 L11.4175677,9.86297156 L12.4538425,14.5367365 C12.5257063,14.8615338 12.1901027,15.1170008 11.9184578,14.9444287 L8.00044766,12.4666249 L4.08243751,14.9444287 C3.810074,15.1162472 3.47518905,14.8607802 3.54705277,14.5367365 L4.58332765,9.86297156 L1.12452669,6.72050141 C0.884501854,6.50271391 1.01241928,6.08899302 1.3293383,6.0603566 L5.88837285,5.64965007 L7.6691559,1.23059853 C7.7927615,0.923133824 8.20741518,0.923133824 8.33102078,1.23059853 Z M7.58823529,10.8636561 L10.3537127,12.4931234 C10.545957,12.6061157 10.7823312,12.438114 10.7316071,12.2250146 L10.0001658,9.15142684 L12.4415162,7.08485785 C12.6109347,6.9416352 12.5206458,6.66956173 12.2969525,6.65072969 L9.07901629,6.38063854 L7.82207335,3.47455687 C7.73482791,3.27236019 7.58823529,10.8636561 7.58823529,10.8636561 Z" id="icon-review-half-star"></path>
        </g>
    </g>
</svg>