<?xml version="1.0" encoding="UTF-8"?>
<svg id="subscription" width="13" height="13" viewBox="0 0 13 13" fill="none" xmlns="http://www.w3.org/2000/svg">
<path fill-rule="evenodd" clip-rule="evenodd" d="M10.5156 2.3067C12.8689 4.65995 12.9141 8.43873 10.6853 10.8485H11.8167V12.3193H8.17369V8.67632H9.64447V9.80769C11.3076 7.96355 11.2397 5.1125 9.47476 3.34756C8.39996 2.27276 6.87261 1.78627 5.3792 2.03517L5.34526 2.04648V0.553072C7.26859 0.304171 9.14666 0.937738 10.5156 2.3067ZM1.80407 11.0183C-0.549184 8.665 -0.594438 4.88622 1.63436 2.4764H0.502991V1.00562H4.14601V4.64863H2.67522V3.51726C1.01211 5.3614 1.07999 8.21245 2.84493 9.97739C3.91973 11.0522 5.44708 11.5387 6.94049 11.2898L6.97443 11.2785V12.7719C5.0511 13.0208 3.17303 12.3872 1.80407 11.0183Z" fill="#2892D1"/>
</svg>
