<?xml version="1.0" encoding="UTF-8"?>
<svg width="29px" height="23px" viewBox="0 0 29 23" version="1.1" xmlns="http://www.w3.org/2000/svg" xmlns:xlink="http://www.w3.org/1999/xlink">
    <g id="Navigation" stroke="none" stroke-width="1" fill="none" fill-rule="evenodd">
        <g id="Organisms/Footer/Mobile" transform="translate(-192.000000, -608.000000)" fill="currentColor">
            <g id="Social-Placeholder" transform="translate(32.000000, 605.000000)">
                <g id="twitter-(7)" transform="translate(160.000000, 3.000000)">
                    <path d="M28.9432107,2.7389655 C27.8738803,3.19762137 26.7320528,3.51007331 25.5298113,3.65274004 C26.7550102,2.93233198 27.6974709,1.79689342 28.1433274,0.442148972 C26.9942502,1.09652945 25.72072,1.57287128 24.3650265,1.83816066 C23.2824049,0.707438355 21.7394275,0 20.0260822,0 C16.7431774,0 14.0813299,2.59747783 14.0813299,5.79745732 C14.0813299,6.25729225 14.1357027,6.69944123 14.2347819,7.12272518 C9.29290446,6.89516584 4.91287863,4.57948429 1.9815841,1.07884349 C1.46564726,1.93012765 1.17686763,2.91936228 1.17686763,3.99702671 C1.17686763,6.01322602 2.22807383,7.7853591 3.82059081,8.82647255 C2.84550644,8.79581689 1.92841965,8.53406469 1.12853631,8.10016917 L1.12853631,8.17209207 C1.12853631,10.9841595 3.17415941,13.3293177 5.89642098,13.8634336 C5.39740011,13.9943097 4.87058873,14.0650536 4.33048623,14.0650536 C3.95108537,14.0650536 3.58739219,14.0296817 3.22369901,13.9636541 C3.98612558,16.2663659 6.17795092,17.945353 8.78663389,17.9925155 C6.75671847,19.5477008 4.18428399,20.4744451 1.4136911,20.4744451 C0.942460731,20.4744451 0.472438648,20.4473266 0,20.3954478 C2.64493146,22.0390629 5.76109329,23 9.13099454,23 C20.0707887,23 26.0457481,14.1617368 26.0457481,6.50961193 C26.0457481,6.26318757 26.0457481,6.01440509 26.0276238,5.76680166 C27.1887838,4.95442662 28.2025332,3.92746194 29,2.76254678 L28.9432107,2.7389655 Z" id="Path"></path>
                </g>
            </g>
        </g>
    </g>
</svg>