<?xml version="1.0" encoding="UTF-8"?>
<svg width="29px" height="20px" viewBox="0 0 29 20" version="1.1" xmlns="http://www.w3.org/2000/svg" xmlns:xlink="http://www.w3.org/1999/xlink">
    <title>youtube (4)</title>
    <g id="Navigation" stroke="none" stroke-width="1" fill="none" fill-rule="evenodd">
        <g id="Organisms/Footer/Mobile" transform="translate(-32.000000, -609.000000)" fill="currentColor">
            <g id="Social-Placeholder" transform="translate(32.000000, 605.000000)">
                <g id="youtube-(4)" transform="translate(0.000000, 4.000000)">
                    <path d="M28.3945663,3.08823754 C28.0527146,1.87950429 27.0955511,0.934974668 25.8706499,0.597635198 C23.6102459,1.68516189e-05 14.5130263,1.68516189e-05 14.5130263,1.68516189e-05 C14.5130263,1.68516189e-05 5.43877329,-0.0118943988 3.15540258,0.597635198 C1.93050144,0.934974668 0.973337895,1.87950429 0.631486207,3.08823754 C0.203001352,5.37189869 -0.00824373404,7.69008196 0.00024602835,10.0125415 C-0.00658942911,12.3262374 0.204648733,14.6355594 0.631486207,16.9106034 C0.973337895,18.1193367 1.93050144,19.0638663 3.15540258,19.4012058 C5.41338907,20 14.5130263,20 14.5130263,20 C14.5130263,20 23.5860705,20 25.8706499,19.4012058 C27.0955511,19.0638663 28.0527146,18.1193367 28.3945663,16.9106034 C28.8124863,14.6347354 29.0148211,12.32542 28.9989524,10.0125415 C29.0164753,7.69090238 28.8141338,5.37272581 28.3945663,3.08823754 L28.3945663,3.08823754 Z M11.6095554,14.2959481 L11.6095554,5.71601386 L19.1813045,10.0125415 L11.6095554,14.2959481 Z" id="Shape"></path>
                </g>
            </g>
        </g>
    </g>
</svg>